HIERARCHY
ROOT Hips
{
  OFFSET 0.0 0.0 0.0
  CHANNELS 6 XPOSITION YPOSITION ZPOSITION ZROTATION XROTATION YROTATION 
  JOINT LeftUpLeg
  {
    OFFSET 0.089458 -0.0866707 0.00101652
    CHANNELS 3 ZROTATION XROTATION YROTATION 
    JOINT LeftLeg
    {
      OFFSET 0.0 -0.444227 0.013727
      CHANNELS 3 ZROTATION XROTATION YROTATION 
      JOINT LeftFoot
      {
        OFFSET -0.00253549 -0.420924 -0.0146059
        CHANNELS 3 ZROTATION XROTATION YROTATION 
        End Site
        {
          OFFSET -0.0004 -0.0441509 0.084991
        }
      }
    }
  }
  JOINT Spine
  {
    OFFSET 0.0 0.118905 0.0
    CHANNELS 3 ZROTATION XROTATION YROTATION 
    JOINT Spine1
    {
      OFFSET 0.0 0.256574 0.00127663
      CHANNELS 3 ZROTATION XROTATION YROTATION 
      End Site
      {
        OFFSET -0.0029 0.2150836 0.02525291
      }
      JOINT RightArm
      {
        OFFSET -0.162727 -0.05365632 0.00102123
        CHANNELS 3 ZROTATION XROTATION YROTATION 
        JOINT RightForeArm
        {
          OFFSET -0.26364 0.00099144 -0.0142434
          CHANNELS 3 ZROTATION XROTATION YROTATION 
          End Site
          {
            OFFSET -0.220324 0.00085362 0.0102216
          }
        }
      }
      JOINT LeftArm
      {
        OFFSET 0.162727 -0.0536563199 0.00102123
        CHANNELS 3 ZROTATION XROTATION YROTATION 
        JOINT LeftForeArm
        {
          OFFSET 0.262597 0.00099144 -0.0142434
          CHANNELS 3 ZROTATION XROTATION YROTATION 
          End Site
          {
            OFFSET 0.220902 0.00085362 0.0102216
          }
        }
      }
    }
  }
  JOINT RightUpLeg
  {
    OFFSET -0.089458 -0.0866707 0.00101652
    CHANNELS 3 ZROTATION XROTATION YROTATION 
    JOINT RightLeg
    {
      OFFSET 0.0 -0.444227 0.013727
      CHANNELS 3 ZROTATION XROTATION YROTATION 
      JOINT RightFoot
      {
        OFFSET 0.00253549 -0.420924 -0.0146059
        CHANNELS 3 ZROTATION XROTATION YROTATION 
        End Site
        {
          OFFSET 0.0004 -0.0441509 0.084991
        }
      }
    }
  }
}
MOTION
Frames: 13
Frame Time: 0.033333
1.88001 1.03935116317 0.0641474 -3.49944016418 -0.456604015709 -93.3147001389 -1.67197993617 2.95026990302 2.19281985331 -0.485121015989 7.83411001102 19.0017006766 -1.39582428897 -7.10769548712 0.0096000526595 0.97220603153 6.6283096956 0.607203016801 -1.75024003024 1.0658299958 1.06366002336 78.6848652386 -11.4477257518 5.12006732308 6.68671976584 31.8612000629 12.12419964 -72.2204190383 3.41397891629 -3.26560885139 -2.47613994207 28.549698957 -19.162799226 -1.70200993008 3.56236989865 -4.97897994738 0.173442995658 9.48226966246 -11.0050996115 2.92105398229 -9.524497307 -0.0564898065722 
1.88 1.03935116317 0.0641474 -3.45799991238 -0.47180102653 -93.3376973858 -1.69462991068 2.89785994053 2.16787002605 -0.479449024131 7.8447301014 19.054501454 -1.36341418759 -7.09699514201 0.00959983504727 0.90970702586 6.64958018534 0.595804978541 -1.68335999183 0.997452972023 1.03594002078 78.6523193872 -11.7821070541 5.0488297307 6.86843011852 32.0223993575 11.8262992318 -72.2500005876 3.40028246602 -3.19547412111 -2.47472993489 28.6628000595 -19.1322990162 -1.71736003318 3.4918099891 -4.97827985299 0.168707006521 9.52707058077 -10.9610004951 2.87387466404 -9.54939676162 -0.0564939353682 
1.87989 1.03935116317 0.0641474 -3.42408994414 -0.477924024317 -93.385399427 -1.72448007851 2.83637991371 2.11504000692 -0.441788001378 7.91376965353 19.1419005546 -1.34829438992 -7.12309542927 0.00960038116225 0.865241960755 6.7068197319 0.575302031313 -1.64270008914 0.929669000761 1.00592998384 78.6126428183 -12.6138815148 4.94165381734 7.090730151 32.8548013418 11.2693997578 -72.2891307413 3.25251794007 -3.10170266744 -2.49160989365 29.0119012733 -19.0122003849 -1.72410996763 3.43229001313 -4.97231026765 0.158638000343 9.57749018345 -10.9090005574 2.85274547385 -9.57369772091 -0.0564980041332 
1.87967 1.03934116317 0.0641474 -3.43029004836 -0.461009967972 -93.4677988291 -1.72473994586 2.84344979983 2.09649988531 -0.410155981269 7.96583960067 19.2225002019 -1.38426803578 -7.17999560081 0.00894816563134 0.846377992123 6.68046032435 0.575124980004 -1.61907008921 1.04242998115 1.00320996772 78.5759168912 -13.6809423321 4.88724111531 7.29611052425 34.0014978959 10.6362992784 -72.32807648 2.84001378779 -3.11090848178 -2.6518000278 29.5529991046 -18.6784995402 -1.70348994669 3.4433299467 -4.94908975891 0.140085005422 9.58276052817 -10.8668002336 2.87244544696 -9.57529769273 -0.0564982776076 
1.87944 1.03931116317 0.064152 -3.44068004675 -0.446061005075 -93.5785981578 -1.71561993577 2.87934991444 2.11290002328 -0.405092996825 7.97249988888 19.3128994632 -1.45022204996 -7.23359551032 0.00676061829053 0.736784992209 6.57115979527 0.601442019041 -1.4613399971 1.25653005137 0.998026067583 78.4994324328 -14.5535024136 4.86938956214 7.54968044341 34.6723010196 10.0601002511 -72.4098133538 2.23370814045 -3.16174109746 -2.98110009628 30.1524984684 -18.148400021 -1.68113004178 3.45425013853 -4.91592022586 0.11023899974 9.58536966043 -10.7916997424 2.88865626062 -9.60459749672 -0.0565030734143 
1.87931 1.03925116317 0.0641732 -3.42918996102 -0.457313021362 -93.6710994098 -1.73577998616 2.88305998782 2.11579004707 -0.408777990604 7.96950997357 19.4095005361 -1.47150054382 -7.2536950495 0.00561747165722 0.534908986253 6.53563000498 0.619036959869 -1.20076006269 1.3258700251 0.958056014004 78.3867274814 -15.1304536155 4.80800451764 7.80456005134 34.9012011493 9.59887977461 -72.5256260414 1.6260237554 -3.12087436811 -3.32558004673 30.7859985139 -17.6020992931 -1.69343003854 3.41530994941 -4.90168995361 0.0854440990418 9.62841009749 -10.6962999289 2.9157601588 -9.65849793456 -0.0565458154574 
1.87921 1.03922116317 0.0641968 -3.40804006681 -0.478528976306 -93.7135968468 -1.76899999857 2.86962991492 2.09808000688 -0.408897999162 7.96353953447 19.4713000877 -1.43844434923 -7.2431953412 0.0049704763185 0.400447000766 6.58480010993 0.604292022194 -1.06856996888 1.25965006044 0.911935054912 78.3098537022 -15.705372836 4.71388749908 7.94070962717 35.443398641 9.215329648 -72.5946587633 1.01667493862 -3.04128772324 -3.59663973248 31.5637999661 -17.1062002386 -1.72802014421 3.36824994603 -4.91587028011 0.0821282022823 9.67933001152 -10.6541004589 2.99087452386 -9.67219758648 -0.0566044523646 
1.87904 1.03919116317 0.0642196 -3.38578005342 -0.479622020016 -93.734797754 -1.77459989992 2.85901003797 2.08780996369 -0.405498992874 7.96062048237 19.5038988731 -1.44555105434 -7.24619550179 0.00464218325937 0.402387014614 6.56487986321 0.582871001492 -1.12325993389 1.27442994947 0.901614959241 78.2840014362 -16.4053818486 4.66122247171 7.94178965083 36.4421020713 8.89474959666 -72.5935386123 0.273485016555 -3.06035910551 -3.89292992359 32.446301388 -16.5591003785 -1.73671999094 3.3467798867 -4.92227016736 0.0846910973662 9.69689981939 -10.6648998418 3.06736559894 -9.66799702014 -0.0566153046281 
1.87885 1.03916116317 0.0642386 -3.35758994172 -0.464357987964 -93.7673982469 -1.76326007835 2.82177013907 2.08129993964 -0.39202100193 8.00462995251 19.551500169 -1.51083773769 -7.28599586786 0.00445477869337 0.421564985184 6.50830967519 0.57924902688 -1.16446006185 1.3345800104 0.906962997361 78.240233584 -16.919548244 4.62140929904 7.88285024093 37.1767025769 8.73993909025 -72.5989412919 -0.420739519471 -3.10330882911 -4.22342997092 33.0738011123 -16.0368009353 -1.71431995867 3.3271798051 -4.90011986388 0.0811676002086 9.69545011174 -10.6465001659 3.05605203091 -9.71049701848 -0.0566966999391 
1.87874 1.03915116317 0.0642507 -3.33366016052 -0.454761038572 -93.7954976451 -1.76676001669 2.76760012221 2.06343003034 -0.37267099597 8.07781969834 19.596200342 -1.5224418022 -7.32249554501 0.00422980475189 0.39863598678 6.60241986355 0.568754974829 -1.12071003218 1.22640005923 0.885096040012 78.1777783343 -16.9283233296 4.52368081796 7.80906968374 37.1773992562 8.8363403802 -72.6456119745 -0.638805394956 -2.98755483848 -4.35497002282 33.1618012696 -15.8645999135 -1.70407008589 3.30402012773 -4.88920991734 0.0798315978647 9.69466037112 -10.588499907 2.95543032438 -9.73019784537 -0.056944827905 
1.87864 1.03916116317 0.0642517 -3.32210988375 -0.447825995326 -93.8085979479 -1.76803000499 2.75163007271 2.0574201042 -0.368838005865 8.10086987924 19.5953995023 -1.47533025223 -7.33109475317 0.00378899366433 0.443047984517 6.75955989135 0.530251971178 -1.17783005043 1.06078003141 0.856806997295 78.1931189391 -16.5123511487 4.44431145849 7.76960997336 36.6676998045 9.06022032081 -72.6669289949 -0.408114288316 -2.78048271276 -4.1904700393 32.9603004438 -16.0935000432 -1.71060999202 3.30034996827 -4.90577995627 0.0970559008785 9.68306954009 -10.5668994338 2.86690765765 -9.66049747243 -0.0577598815824 
1.87842 1.03919116317 0.0642282 -3.30935002316 -0.433980001259 -93.8375989312 -1.74776003124 2.7591398657 2.07809999602 -0.377910017867 8.10037042166 19.5940010211 -1.50262080667 -7.35749514186 0.00295468547358 0.575979020454 6.72152000654 0.50080601181 -1.38439001869 1.12077000978 0.871686991289 78.2923547576 -15.9965318475 4.5130146238 7.84547032315 35.9565985647 9.19092025945 -72.6193908783 -0.26198844748 -2.71431802994 -4.00712001434 32.9073015909 -16.3066992755 -1.69420003565 3.3048700594 -4.8904098962 0.0897225055255 9.67218051101 -10.5928994026 2.8977978285 -9.65629775987 -0.0566503560383 
1.87809 1.03907116317 0.0642142 -3.30293989063 -0.439942996529 -93.8803012739 -1.75503994568 2.74075000825 2.08512996822 -0.373303001911 8.17470934681 19.6455006474 -1.58302045749 -7.42509523163 0.00154870110062 0.630886964553 6.61658994476 0.514844985401 -1.51644991203 1.24677003121 0.912841975968 78.3680195932 -15.5792277798 4.66531076682 8.00075979657 35.2204988326 9.21055961463 -72.5626183459 -0.398098402867 -2.77870067371 -4.0427898235 32.9902986346 -16.2434004973 -1.67832998439 3.29209995353 -4.83709002444 0.0377374988606 9.72822989711 -10.5990995069 3.05030634771 -9.84309660348 -0.0447871378731 
